<svg width="3676" height="3676" viewBox="0 0 3676 3676" fill="none" xmlns="http://www.w3.org/2000/svg">
<path d="M1638.5 1277.52V1106.99C1638.5 1012.76 1638.5 965.647 1609.23 936.361C1579.97 907.076 1532.85 907.046 1438.63 906.987L884.94 906.64C837.827 906.611 814.27 906.596 799.636 891.953C785.003 877.311 785.003 853.754 785.003 806.64V724.644C785.003 677.492 785.003 653.916 799.652 639.27C814.301 624.625 837.877 624.631 885.029 624.644L2796.02 625.151C2843.15 625.163 2866.71 625.169 2881.35 639.813C2895.99 654.457 2895.99 678.022 2895.99 725.151V807.177C2895.99 854.318 2895.99 877.888 2881.35 892.533C2866.71 907.177 2843.14 907.177 2795.99 907.177H2159.5C2065.22 907.177 2018.08 907.177 1988.79 936.467C1959.5 965.756 1959.5 1012.9 1959.5 1107.18V2947.18C1959.5 2994.32 1959.5 3017.89 1944.86 3032.53C1930.21 3047.18 1906.64 3047.18 1859.5 3047.18H1738.5C1691.36 3047.18 1667.79 3047.18 1653.14 3032.53C1638.5 3017.89 1638.5 2994.32 1638.5 2947.18V1425.55" stroke="#82B74B" stroke-width="40"/>
<circle cx="1638.5" cy="1279.55" r="20" fill="#82B74B"/>
<circle cx="1638.5" cy="1426.55" r="20" fill="#82B74B"/>
<path d="M1494 2895.55V3022.22C1494 3097.74 1494 3135.51 1517.47 3158.95C1540.95 3182.38 1578.71 3182.33 1654.24 3182.22L1951.24 3181.78C2026.56 3181.67 2064.22 3181.62 2087.61 3158.19C2111 3134.77 2111 3097.11 2111 3021.78V1202.59C2111 1127.16 2111 1089.45 2134.43 1066.02C2157.86 1042.59 2195.57 1042.59 2270.99 1042.59L2865.01 1042.56C2940.43 1042.55 2978.14 1042.55 3001.57 1019.12C3025 995.687 3025 957.976 3025 882.555V653.547C3025 578.122 3025 540.41 3001.57 516.978C2978.14 493.547 2940.42 493.547 2865 493.547H811C735.575 493.547 697.863 493.547 674.431 516.978C651 540.41 651 578.122 651 653.547V881.728C651 957.074 651 994.748 674.399 1018.17C697.799 1041.6 735.472 1041.64 810.819 1041.73L1334.18 1042.32C1409.53 1042.4 1447.2 1042.45 1470.6 1065.87C1494 1089.3 1494 1126.97 1494 1202.32V2749.3" stroke="#82B74B" stroke-width="40"/>
<circle cx="1494" cy="2748.8" r="20" fill="#82B74B"/>
<circle cx="1494" cy="2895.8" r="20" fill="#82B74B"/>
</svg>
