<svg width="3000" height="3000" viewBox="0 0 3000 3000" fill="none" xmlns="http://www.w3.org/2000/svg">
<path d="M1214.24 2892.74C1214.24 2937.07 1178.3 2973 1133.96 2973C1089.63 2973 1053.69 2937.07 1053.69 2892.74C1053.69 2848.42 1089.63 2812.49 1133.96 2812.49C1178.3 2812.49 1214.24 2848.42 1214.24 2892.74Z" fill="url(#paint0_linear)"/>
<path d="M1505.35 2892.74C1505.35 2937.07 1469.41 2973 1425.08 2973C1380.75 2973 1344.81 2937.07 1344.81 2892.74C1344.81 2848.42 1380.75 2812.49 1425.08 2812.49C1469.41 2812.49 1505.35 2848.42 1505.35 2892.74Z" fill="url(#paint1_linear)"/>
<path d="M1886.37 2421.91C1886.37 2466.23 1850.43 2502.16 1806.1 2502.16C1761.77 2502.16 1725.83 2466.23 1725.83 2421.91C1725.83 2377.58 1761.77 2341.65 1806.1 2341.65C1850.43 2341.65 1886.37 2377.58 1886.37 2421.91Z" fill="url(#paint2_linear)"/>
<path d="M1886.37 2032.4C1886.37 2076.72 1850.43 2112.66 1806.1 2112.66C1761.77 2112.66 1725.83 2076.72 1725.83 2032.4C1725.83 1988.08 1761.77 1952.14 1806.1 1952.14C1850.43 1952.14 1886.37 1988.08 1886.37 2032.4Z" fill="url(#paint3_linear)"/>
<path d="M1214.24 1338.99C1214.24 1383.31 1178.3 1419.24 1133.96 1419.24C1089.63 1419.24 1053.69 1383.31 1053.69 1338.99C1053.69 1294.66 1089.63 1258.73 1133.96 1258.73C1178.3 1258.73 1214.24 1294.66 1214.24 1338.99Z" fill="url(#paint4_linear)"/>
<path d="M1214.24 769.706C1214.24 814.03 1178.3 849.962 1133.96 849.962C1089.63 849.962 1053.69 814.03 1053.69 769.706C1053.69 725.381 1089.63 689.45 1133.96 689.45C1178.3 689.45 1214.24 725.381 1214.24 769.706Z" fill="url(#paint5_linear)"/>
<path d="M396.542 769.706C396.542 814.03 360.603 849.962 316.271 849.962C271.939 849.962 236 814.03 236 769.706C236 725.381 271.939 689.45 316.271 689.45C360.603 689.45 396.542 725.381 396.542 769.706Z" fill="url(#paint6_linear)"/>
<path d="M407.245 114.817C407.245 159.141 371.306 195.073 326.974 195.073C282.641 195.073 246.703 159.141 246.703 114.817C246.703 70.4925 282.641 34.5606 326.974 34.5606C371.306 34.5606 407.245 70.4925 407.245 114.817Z" fill="url(#paint7_linear)"/>
<path d="M2419.37 114.817C2419.37 159.141 2383.43 195.073 2339.1 195.073C2294.77 195.073 2258.83 159.141 2258.83 114.817C2258.83 70.4925 2294.77 34.5606 2339.1 34.5606C2383.43 34.5606 2419.37 70.4925 2419.37 114.817Z" fill="url(#paint8_linear)"/>
<path d="M2764 106.256C2764 150.58 2728.06 186.512 2683.73 186.512C2639.4 186.512 2603.46 150.58 2603.46 106.256C2603.46 61.9318 2639.4 26 2683.73 26C2728.06 26 2764 61.9318 2764 106.256Z" fill="url(#paint9_linear)"/>
<path d="M2764 763.285C2764 807.609 2728.06 843.541 2683.73 843.541C2639.4 843.541 2603.46 807.609 2603.46 763.285C2603.46 718.961 2639.4 683.029 2683.73 683.029C2728.06 683.029 2764 718.961 2764 763.285Z" fill="url(#paint10_linear)"/>
<path d="M2425.79 769.706C2425.79 814.03 2389.85 849.962 2345.52 849.962C2301.19 849.962 2265.25 814.03 2265.25 769.706C2265.25 725.381 2301.19 689.45 2345.52 689.45C2389.85 689.45 2425.79 725.381 2425.79 769.706Z" fill="url(#paint11_linear)"/>
<path d="M1886.37 547.129C1886.37 591.453 1850.43 627.385 1806.1 627.385C1761.77 627.385 1725.83 591.453 1725.83 547.129C1725.83 502.805 1761.77 466.873 1806.1 466.873C1850.43 466.873 1886.37 502.805 1886.37 547.129Z" fill="url(#paint12_linear)"/>
<path d="M1672.32 547.129C1672.32 591.453 1636.38 627.385 1592.04 627.385C1547.71 627.385 1511.77 591.453 1511.77 547.129C1511.77 502.805 1547.71 466.873 1592.04 466.873C1636.38 466.873 1672.32 502.805 1672.32 547.129Z" fill="url(#paint13_linear)"/>
<path d="M1479.66 324.552C1479.66 368.876 1443.73 404.808 1399.39 404.808C1355.06 404.808 1319.12 368.876 1319.12 324.552C1319.12 280.228 1355.06 244.296 1399.39 244.296C1443.73 244.296 1479.66 280.228 1479.66 324.552Z" fill="url(#paint14_linear)"/>
<path d="M965.931 324.552C965.931 368.876 929.992 404.808 885.66 404.808C841.327 404.808 805.389 368.876 805.389 324.552C805.389 280.228 841.327 244.296 885.66 244.296C929.992 244.296 965.931 280.228 965.931 324.552Z" fill="url(#paint15_linear)"/>
<path d="M349.45 88.0646H2327.33V145.849H349.45V88.0646Z" fill="url(#paint16_linear)"/>
<path d="M1398.32 297.8H2567.07V357.725H1398.32V297.8Z" fill="url(#paint17_linear)"/>
<path d="M1805.03 520.377H2571.35V582.442H1805.03V520.377Z" fill="url(#paint18_linear)"/>
<path d="M1779.34 742.954H2327.33V794.317H1779.34V742.954Z" fill="url(#paint19_linear)"/>
<path d="M1424.01 2878.83H1835V2925.92H1424.01V2878.83Z" fill="url(#paint20_linear)"/>
<path d="M1783.62 2925.92V2429.4H1835V2925.92H1783.62Z" fill="url(#paint21_linear)"/>
<path d="M1107.21 2878.83V1348.62H1158.58V2878.83H1107.21Z" fill="url(#paint22_linear)"/>
<path d="M1779.34 2033.47V742.954H1830.72V2033.47H1779.34Z" fill="url(#paint23_linear)"/>
<path d="M2654.83 770.776V98.7654H2714.77V770.776H2654.83Z" fill="url(#paint24_linear)"/>
<path d="M2509.27 582.442V297.8H2571.35V582.442H2509.27Z" fill="url(#paint25_linear)"/>
<path d="M437.213 578.161V297.8H499.289V578.161H437.213Z" fill="url(#paint26_linear)"/>
<path d="M1310.56 2711.9V528.938H1379.06V2711.9H1310.56Z" fill="url(#paint27_linear)"/>
<path d="M1554.58 2711.9V528.938H1623.08V2711.9H1554.58Z" fill="url(#paint28_linear)"/>
<path d="M1319.12 2669.1H1620.94V2711.9H1319.12V2669.1Z" fill="url(#paint29_linear)"/>
<path d="M437.213 297.8H884.589V357.725H437.213V297.8Z" fill="url(#paint30_linear)"/>
<path d="M437.213 528.938H1372.64V582.442H437.213V528.938Z" fill="url(#paint31_linear)"/>
<path d="M315.201 742.954H1135.03V796.458H315.201V742.954Z" fill="url(#paint32_linear)"/>
<defs>
<linearGradient id="paint0_linear" x1="1500" y1="26" x2="1500" y2="2973" gradientUnits="userSpaceOnUse">
<stop stop-color="#82B74B"/>
<stop offset="1" stop-color="#7CE8E8"/>
</linearGradient>
<linearGradient id="paint1_linear" x1="1500" y1="26" x2="1500" y2="2973" gradientUnits="userSpaceOnUse">
<stop stop-color="#82B74B"/>
<stop offset="1" stop-color="#7CE8E8"/>
</linearGradient>
<linearGradient id="paint2_linear" x1="1500" y1="26" x2="1500" y2="2973" gradientUnits="userSpaceOnUse">
<stop stop-color="#82B74B"/>
<stop offset="1" stop-color="#7CE8E8"/>
</linearGradient>
<linearGradient id="paint3_linear" x1="1500" y1="26" x2="1500" y2="2973" gradientUnits="userSpaceOnUse">
<stop stop-color="#82B74B"/>
<stop offset="1" stop-color="#7CE8E8"/>
</linearGradient>
<linearGradient id="paint4_linear" x1="1500" y1="26" x2="1500" y2="2973" gradientUnits="userSpaceOnUse">
<stop stop-color="#82B74B"/>
<stop offset="1" stop-color="#7CE8E8"/>
</linearGradient>
<linearGradient id="paint5_linear" x1="1500" y1="26" x2="1500" y2="2973" gradientUnits="userSpaceOnUse">
<stop stop-color="#82B74B"/>
<stop offset="1" stop-color="#7CE8E8"/>
</linearGradient>
<linearGradient id="paint6_linear" x1="1500" y1="26" x2="1500" y2="2973" gradientUnits="userSpaceOnUse">
<stop stop-color="#82B74B"/>
<stop offset="1" stop-color="#7CE8E8"/>
</linearGradient>
<linearGradient id="paint7_linear" x1="1500" y1="26" x2="1500" y2="2973" gradientUnits="userSpaceOnUse">
<stop stop-color="#82B74B"/>
<stop offset="1" stop-color="#7CE8E8"/>
</linearGradient>
<linearGradient id="paint8_linear" x1="1500" y1="26" x2="1500" y2="2973" gradientUnits="userSpaceOnUse">
<stop stop-color="#82B74B"/>
<stop offset="1" stop-color="#7CE8E8"/>
</linearGradient>
<linearGradient id="paint9_linear" x1="1500" y1="26" x2="1500" y2="2973" gradientUnits="userSpaceOnUse">
<stop stop-color="#82B74B"/>
<stop offset="1" stop-color="#7CE8E8"/>
</linearGradient>
<linearGradient id="paint10_linear" x1="1500" y1="26" x2="1500" y2="2973" gradientUnits="userSpaceOnUse">
<stop stop-color="#82B74B"/>
<stop offset="1" stop-color="#7CE8E8"/>
</linearGradient>
<linearGradient id="paint11_linear" x1="1500" y1="26" x2="1500" y2="2973" gradientUnits="userSpaceOnUse">
<stop stop-color="#82B74B"/>
<stop offset="1" stop-color="#7CE8E8"/>
</linearGradient>
<linearGradient id="paint12_linear" x1="1500" y1="26" x2="1500" y2="2973" gradientUnits="userSpaceOnUse">
<stop stop-color="#82B74B"/>
<stop offset="1" stop-color="#7CE8E8"/>
</linearGradient>
<linearGradient id="paint13_linear" x1="1500" y1="26" x2="1500" y2="2973" gradientUnits="userSpaceOnUse">
<stop stop-color="#82B74B"/>
<stop offset="1" stop-color="#7CE8E8"/>
</linearGradient>
<linearGradient id="paint14_linear" x1="1500" y1="26" x2="1500" y2="2973" gradientUnits="userSpaceOnUse">
<stop stop-color="#82B74B"/>
<stop offset="1" stop-color="#7CE8E8"/>
</linearGradient>
<linearGradient id="paint15_linear" x1="1500" y1="26" x2="1500" y2="2973" gradientUnits="userSpaceOnUse">
<stop stop-color="#82B74B"/>
<stop offset="1" stop-color="#7CE8E8"/>
</linearGradient>
<linearGradient id="paint16_linear" x1="1500" y1="26" x2="1500" y2="2973" gradientUnits="userSpaceOnUse">
<stop stop-color="#82B74B"/>
<stop offset="1" stop-color="#7CE8E8"/>
</linearGradient>
<linearGradient id="paint17_linear" x1="1500" y1="26" x2="1500" y2="2973" gradientUnits="userSpaceOnUse">
<stop stop-color="#82B74B"/>
<stop offset="1" stop-color="#7CE8E8"/>
</linearGradient>
<linearGradient id="paint18_linear" x1="1500" y1="26" x2="1500" y2="2973" gradientUnits="userSpaceOnUse">
<stop stop-color="#82B74B"/>
<stop offset="1" stop-color="#7CE8E8"/>
</linearGradient>
<linearGradient id="paint19_linear" x1="1500" y1="26" x2="1500" y2="2973" gradientUnits="userSpaceOnUse">
<stop stop-color="#82B74B"/>
<stop offset="1" stop-color="#7CE8E8"/>
</linearGradient>
<linearGradient id="paint20_linear" x1="1500" y1="26" x2="1500" y2="2973" gradientUnits="userSpaceOnUse">
<stop stop-color="#82B74B"/>
<stop offset="1" stop-color="#7CE8E8"/>
</linearGradient>
<linearGradient id="paint21_linear" x1="1500" y1="26" x2="1500" y2="2973" gradientUnits="userSpaceOnUse">
<stop stop-color="#82B74B"/>
<stop offset="1" stop-color="#7CE8E8"/>
</linearGradient>
<linearGradient id="paint22_linear" x1="1500" y1="26" x2="1500" y2="2973" gradientUnits="userSpaceOnUse">
<stop stop-color="#82B74B"/>
<stop offset="1" stop-color="#7CE8E8"/>
</linearGradient>
<linearGradient id="paint23_linear" x1="1500" y1="26" x2="1500" y2="2973" gradientUnits="userSpaceOnUse">
<stop stop-color="#82B74B"/>
<stop offset="1" stop-color="#7CE8E8"/>
</linearGradient>
<linearGradient id="paint24_linear" x1="1500" y1="26" x2="1500" y2="2973" gradientUnits="userSpaceOnUse">
<stop stop-color="#82B74B"/>
<stop offset="1" stop-color="#7CE8E8"/>
</linearGradient>
<linearGradient id="paint25_linear" x1="1500" y1="26" x2="1500" y2="2973" gradientUnits="userSpaceOnUse">
<stop stop-color="#82B74B"/>
<stop offset="1" stop-color="#7CE8E8"/>
</linearGradient>
<linearGradient id="paint26_linear" x1="1500" y1="26" x2="1500" y2="2973" gradientUnits="userSpaceOnUse">
<stop stop-color="#82B74B"/>
<stop offset="1" stop-color="#7CE8E8"/>
</linearGradient>
<linearGradient id="paint27_linear" x1="1500" y1="26" x2="1500" y2="2973" gradientUnits="userSpaceOnUse">
<stop stop-color="#82B74B"/>
<stop offset="1" stop-color="#7CE8E8"/>
</linearGradient>
<linearGradient id="paint28_linear" x1="1500" y1="26" x2="1500" y2="2973" gradientUnits="userSpaceOnUse">
<stop stop-color="#82B74B"/>
<stop offset="1" stop-color="#7CE8E8"/>
</linearGradient>
<linearGradient id="paint29_linear" x1="1500" y1="26" x2="1500" y2="2973" gradientUnits="userSpaceOnUse">
<stop stop-color="#82B74B"/>
<stop offset="1" stop-color="#7CE8E8"/>
</linearGradient>
<linearGradient id="paint30_linear" x1="1500" y1="26" x2="1500" y2="2973" gradientUnits="userSpaceOnUse">
<stop stop-color="#82B74B"/>
<stop offset="1" stop-color="#7CE8E8"/>
</linearGradient>
<linearGradient id="paint31_linear" x1="1500" y1="26" x2="1500" y2="2973" gradientUnits="userSpaceOnUse">
<stop stop-color="#82B74B"/>
<stop offset="1" stop-color="#7CE8E8"/>
</linearGradient>
<linearGradient id="paint32_linear" x1="1500" y1="26" x2="1500" y2="2973" gradientUnits="userSpaceOnUse">
<stop stop-color="#82B74B"/>
<stop offset="1" stop-color="#7CE8E8"/>
</linearGradient>
</defs>
</svg>
